#VRML V2.0 utf8
Shape {
  appearance Appearance {
    texture ImageTexture {
      url "bus1.png"
    }
  }
  geometry IndexedFaceSet {
    solid FALSE     # Show back of faces too
  texCoord TextureCoordinate {
    point [
      0.15339202 0.71757746,
      0.80407944 0.71757746,
      0.80407944 0.50112730,
      0.15339202 0.50112730,
      0.80691457 0.50112730,
      0.94442375 0.50338190,
      0.94442375 0.25536603,
      0.80833214 0.25987556,
      0.80974990 0.71757746,
      0.13779820 0.71983238,
      0.13638064 0.99715905,
      0.80974990 0.99715905,
      0.00170679 0.50338190,
      0.13921597 0.50338190,
      0.13921597 0.24409270,
      0.00170679 0.24183810,
      0.13779820 0.50112730,
      0.80549701 0.50112730,
      0.80833214 0.21929111,
      0.13779820 0.21929111,
      ]
  }
  texCoordIndex [
   0    1    2    3 -1
   4    5    6    7 -1
   8    9   10   11 -1
  12   13   14   15 -1
  16   17   18   19 -1
]
    convex FALSE
    coordIndex [
                 0 3 2 1 -1 
                 0 1 5 4 -1 
                 1 2 6 5 -1 
                 2 3 7 6 -1 
                 3 0 4 7 -1 
]
    coord Coordinate {
      point [
                    0.000    0.000    0.000,
                    1.000    0.000    0.000,
                    1.000    0.000    5.000,
                    0.000    0.000    5.000,
                    0.000    1.000    0.000,
                    1.000    1.000    0.000,
                    1.000    1.000    5.000,
                    0.000    1.000    5.000,
]
    }
  }
}
