#VRML V2.0 utf8
Shape {
  appearance Appearance {
    texture ImageTexture {
      url "bus3.png"
    }
  }
  geometry IndexedFaceSet {
    solid FALSE     # Show back of faces too
  texCoord TextureCoordinate {
    point [
      0.16140221 0.64326482,
      0.83733428 0.64104362,
      0.83859773 0.36339878,
      0.16266566 0.36339878,
      0.83986111 0.36339878,
      0.99905259 0.36561998,
      0.99968472 -0.00087125,
      0.83986111 0.00134983,
      0.84238801 0.64104362,
      0.16392910 0.63882253,
      0.16140221 0.99865039,
      0.84238801 0.99912875,
      0.00221080 0.36561987,
      0.16266572 0.36339878,
      0.16140227 -0.00309245,
      0.00347424 0.00134983,
      0.16140221 0.36117758,
      0.83986111 0.36339877,
      0.83986111 -0.00087125,
      0.16266566 0.00357103,
      ]
  }
  texCoordIndex [
   0    1    2    3 -1
   4    5    6    7 -1
   8    9   10   11 -1
  12   13   14   15 -1
  16   17   18   19 -1
]
    convex FALSE
    coordIndex [
                 0 3 2 1 -1 
                 0 1 5 4 -1 
                 1 2 6 5 -1 
                 2 3 7 6 -1 
                 3 0 4 7 -1 
]
    coord Coordinate {
      point [
                    0.000    0.000    0.000,
                    1.000    0.000    0.000,
                    1.000    0.000    5.000,
                    0.000    0.000    5.000,
                    0.000    1.000    0.000,
                    1.000    1.000    0.000,
                    1.000    1.000    5.000,
                    0.000    1.000    5.000,
]
    }
  }
}
