#VRML V2.0 utf8

DEF cameraMain Viewpoint {
  description "Main Camera"
  position 0     -0      188.2952
  orientation 1    0   0      1.1836
  fieldOfView 1
}

DEF cameraTop Viewpoint {
  description "Aerial View"
  position 0 250 2000
}

DEF vehicle Transform {
  translation 1e+06 1e+06 0
  scale .37 .37 .37
  children Inline{
    url "Viena_capture_v2.wrl"
  }
}

Background {
  skyColor 0 1 1
  skyAngle [0.1, 1.2, 1.57]
  groundColor [
    0.15186 0.8 0.26976,
    0.03474 0.8 0.65881 
  ]
  groundAngle [0.9, 1.5, 1.57]
}